curl_17s
version=1
nRows=256
nColumns=3
inDegrees=yes
endheader
time	r_shoulder_elev	r_elbow_flex
4.3900	27.440414	23.560022
4.4000	27.073870	22.392625
4.4100	26.710668	21.277862
4.4200	26.351553	20.216349
4.4300	25.997284	19.208388
4.4400	25.648625	18.253980
4.4500	25.306336	17.352830
4.4600	24.971158	16.504369
4.4700	24.643810	15.707769
4.4800	24.324976	14.961961
4.4900	24.015302	14.265662
4.5000	23.715383	13.617395
4.5100	23.425766	13.015512
4.5200	23.146936	12.458224
4.5300	22.879323	11.943623
4.5400	22.623288	11.469712
4.5500	22.379133	11.034422
4.5600	22.147091	10.635648
4.5700	21.927335	10.271260
4.5800	21.719973	9.939134
4.5900	21.525054	9.637169
4.6000	21.342573	9.363304
4.6100	21.172468	9.115537
4.6200	21.014635	8.891936
4.6300	20.868921	8.690655
4.6400	20.735141	8.509942
4.6500	20.613073	8.348148
4.6600	20.502472	8.203733
4.6700	20.403070	8.075272
4.6800	20.314583	7.961459
4.6900	20.236715	7.861109
4.7000	20.169166	7.773158
4.7100	20.111630	7.696669
4.7200	20.063806	7.630826
4.7300	20.025393	7.574940
4.7400	19.996101	7.528444
4.7500	19.975647	7.490897
4.7600	19.963760	7.461980
4.7700	19.960180	7.441498
4.7800	19.964660	7.429377
4.7900	19.976968	7.425671
4.8000	19.996880	7.430553
4.8100	20.024189	7.444326
4.8200	20.058694	7.467416
4.8300	20.100205	7.500380
4.8400	20.148539	7.543906
4.8500	20.203517	7.598814
4.8600	20.264960	7.666065
4.8700	20.332691	7.746755
4.8800	20.406527	7.842127
4.8900	20.486281	7.953570
4.9000	20.571752	8.082620
4.9100	20.662730	8.230966
4.9200	20.758989	8.400449
4.9300	20.860284	8.593059
4.9400	20.966353	8.810940
4.9500	21.076909	9.056377
4.9600	21.191648	9.331799
4.9700	21.310238	9.639762
4.9800	21.432327	9.982945
4.9900	21.557542	10.364128
5.0000	21.685488	10.786180
5.0100	21.815752	11.252037
5.0200	21.947905	11.764673
5.0300	22.081507	12.327080
5.0400	22.216109	12.942233
5.0500	22.351259	13.613058
5.0600	22.486506	14.342397
5.0700	22.621407	15.132972
5.0800	22.755533	15.987343
5.0900	22.888475	16.907868
5.1000	23.019852	17.896666
5.1100	23.149314	18.955570
5.1200	23.276557	20.086091
5.1300	23.401323	21.289376
5.1400	23.523411	22.566172
5.1500	23.642680	23.916791
5.1600	23.759063	25.341079
5.1700	23.872565	26.838385
5.1800	23.983272	28.407548
5.1900	24.091358	30.046869
5.2000	24.197084	31.754109
5.2100	24.300804	33.526482
5.2200	24.402966	35.360659
5.2300	24.504113	37.252777
5.2400	24.604880	39.198459
5.2500	24.705993	41.192838
5.2600	24.808266	43.230594
5.2700	24.912593	45.305988
5.2800	25.019945	47.412915
5.2900	25.131358	49.544954
5.3000	25.247924	51.695429
5.3100	25.370782	53.857469
5.3200	25.501104	56.024079
5.3300	25.640082	58.188210
5.3400	25.788911	60.342827
5.3500	25.948781	62.480986
5.3600	26.120851	64.595904
5.3700	26.306243	66.681031
5.3800	26.506017	68.730120
5.3900	26.721161	70.737290
5.4000	26.952569	72.697093
5.4100	27.201029	74.604571
5.4200	27.467205	76.455310
5.4300	27.751622	78.245487
5.4400	28.054654	79.971922
5.4500	28.376509	81.632108
5.4600	28.717219	83.224250
5.4700	29.076629	84.747289
5.4800	29.454391	86.200923
5.4900	29.849955	87.585625
5.5000	30.262571	88.902644
5.5100	30.691281	90.154007
5.5200	31.134927	91.342508
5.5300	31.592154	92.471693
5.5400	32.061415	93.545831
5.5500	32.540984	94.569874
5.5600	33.028970	95.549418
5.5700	33.523333	96.490636
5.5800	34.021904	97.400222
5.5900	34.522406	98.285304
5.6000	35.022479	99.153366
5.6100	35.519707	100.012145
5.6200	36.011648	100.869535
5.6300	36.495861	101.733472
5.6400	36.969937	102.611819
5.6500	37.431534	103.512248
5.6600	37.878402	104.442120
5.6700	38.308419	105.408360
5.6800	38.719621	106.417342
5.6900	39.110225	107.474773
5.7000	39.478660	108.585589
5.7100	39.823591	109.753858
5.7200	40.143937	110.982692
5.7300	40.438890	112.274181
5.7400	40.707929	113.629335
5.7500	40.950829	115.048050
5.7600	41.167663	116.529090
5.7700	41.358808	118.070088
5.7800	41.524932	119.667572
5.7900	41.666992	121.317009
5.8000	41.786216	123.012868
5.8100	41.884082	124.748706
5.8200	41.962299	126.517263
5.8300	42.022778	128.000000
5.8400	42.067601	128.000000
5.8500	42.098990	128.000000
5.8600	42.119269	128.000000
5.8700	42.130827	128.000000
5.8800	42.136084	128.000000
5.8900	42.137448	128.000000
5.9000	42.137280	128.000000
5.9100	42.137854	128.000000
5.9200	42.141328	128.000000
5.9300	42.149705	128.000000
5.9400	42.164809	128.000000
5.9500	42.188257	128.000000
5.9600	42.221435	128.000000
5.9700	42.265485	128.000000
5.9800	42.321292	128.000000
5.9900	42.389472	128.000000
6.0000	42.470375	128.000000
6.0100	42.564084	128.000000
6.0200	42.670422	128.000000
6.0300	42.788967	128.000000
6.0400	42.919063	128.000000
6.0500	43.059844	128.000000
6.0600	43.210255	128.000000
6.0700	43.369079	128.000000
6.0800	43.534962	128.000000
6.0900	43.706444	128.000000
6.1000	43.881989	128.000000
6.1100	44.060010	128.000000
6.1200	44.238904	128.000000
6.1300	44.417074	128.000000
6.1400	44.592958	128.000000
6.1500	44.765050	128.000000
6.1600	44.931923	128.000000
6.1700	45.092246	128.000000
6.1800	45.244798	128.000000
6.1900	45.388485	128.000000
6.2000	45.522345	128.000000
6.2100	45.645557	128.000000
6.2200	45.757445	128.000000
6.2300	45.857479	128.000000
6.2400	45.945273	128.000000
6.2500	46.020586	128.000000
6.2600	46.083314	128.000000
6.2700	46.133484	128.000000
6.2800	46.171247	128.000000
6.2900	46.196869	128.000000
6.3000	46.210720	128.000000
6.3100	46.213268	128.000000
6.3200	46.205058	128.000000
6.3300	46.186713	128.000000
6.3400	46.158912	128.000000
6.3500	46.122383	128.000000
6.3600	46.077890	128.000000
6.3700	46.026222	128.000000
6.3800	45.968179	128.000000
6.3900	45.904564	128.000000
6.4000	45.836169	128.000000
6.4100	45.763767	128.000000
6.4200	45.688097	128.000000
6.4300	45.609858	128.000000
6.4400	45.529701	128.000000
6.4500	45.448212	128.000000
6.4600	45.365912	128.000000
6.4700	45.283243	128.000000
6.4800	45.200565	128.000000
6.4900	45.118145	128.000000
6.5000	45.036152	128.000000
6.5100	44.954656	127.674717
6.5200	44.873619	126.000381
6.5300	44.792893	124.276999
6.5400	44.712222	122.507628
6.5500	44.631239	120.695766
6.5600	44.549469	118.845316
6.5700	44.466330	116.960543
6.5800	44.381144	115.046029
6.5900	44.293136	113.106614
6.6000	44.201448	111.147340
6.6100	44.105148	109.173383
6.6200	44.003240	107.189985
6.6300	43.894681	105.202384
6.6400	43.778390	103.215744
6.6500	43.653268	101.235078
6.6600	43.518212	99.265184
6.6700	43.372130	97.310578
6.6800	43.213962	95.375424
6.6900	43.042689	93.463488
6.7000	42.857359	91.578078
6.7100	42.657092	89.722006
6.7200	42.441101	87.897552
6.7300	42.208703	86.106439
6.7400	41.959330	84.349814
6.7500	41.692541	82.628247
6.7600	41.408026	80.941729
6.7700	41.105619	79.289689
6.7800	40.785296	77.671020
6.7900	40.447180	76.084105
6.8000	40.091543	74.526865
6.8100	39.718800	72.996809
6.8200	39.329511	71.491087
6.8300	38.924372	70.006558
6.8400	38.504208	68.539858
6.8500	38.069964	67.087469
6.8600	37.622697	65.645801
6.8700	37.163559	64.211257
6.8800	36.693792	62.780321
6.8900	36.214704	61.349619
6.9000	35.727662	59.915998
6.9100	35.234072	58.476589
6.9200	34.735366	57.028862
6.9300	34.232983	55.570688
6.9400	33.728357	54.100374
